<svg width="36" height="36" viewBox="0 0 36 36" fill="none" xmlns="http://www.w3.org/2000/svg">
<path d="M34.8958 22.2458C32.5362 31.7098 22.9508 37.4695 13.4856 35.1094C4.02438 32.7499 -1.7353 23.1639 0.625322 13.7004C2.98374 4.23527 12.5692 -1.52496 22.0316 0.834562C31.4962 3.19408 37.2553 12.7812 34.8958 22.2458Z" fill="url(#paint0_linear_302_36)"/>
<path d="M25.5464 15.4558C25.8981 13.1051 24.1083 11.8415 21.661 10.9985L22.4548 7.81416L20.5165 7.33111L19.7437 10.4315C19.2341 10.3045 18.7107 10.1847 18.1907 10.066L18.9691 6.94521L17.0319 6.46216L16.2375 9.64535C15.8157 9.54929 15.4017 9.45434 14.9998 9.35442L15.002 9.34448L12.3289 8.67703L11.8133 10.7473C11.8133 10.7473 13.2514 11.0769 13.221 11.0973C14.0061 11.2933 14.1479 11.8128 14.1242 12.2246L13.2199 15.8522C13.274 15.866 13.3441 15.8859 13.4214 15.9168C13.3568 15.9008 13.2878 15.8831 13.2166 15.866L11.9491 20.9477C11.853 21.1862 11.6096 21.544 11.0608 21.4082C11.0801 21.4363 9.65194 21.0565 9.65194 21.0565L8.6897 23.2752L11.2121 23.904C11.6813 24.0216 12.1412 24.1447 12.5939 24.2607L11.7917 27.4814L13.7278 27.9645L14.5222 24.778C15.0511 24.9215 15.5645 25.054 16.0669 25.1787L15.2753 28.3504L17.2136 28.8334L18.0157 25.6187C21.3209 26.2442 23.8063 25.9919 24.8524 23.0025C25.6955 20.5955 24.8105 19.2071 23.0715 18.3017C24.3379 18.0097 25.2919 17.1766 25.5464 15.4558V15.4558ZM21.1177 21.666C20.5188 24.073 16.4661 22.7718 15.1521 22.4455L16.2165 18.1786C17.5304 18.5065 21.7438 19.1557 21.1177 21.666ZM21.7173 15.421C21.1707 17.6105 17.7976 16.4981 16.7034 16.2254L17.6685 12.3554C18.7626 12.6282 22.2865 13.1372 21.7173 15.421V15.421Z" fill="white"/>
<defs>
<linearGradient id="paint0_linear_302_36" x1="0.0961914" y1="0.305908" x2="0.0961914" y2="35.6383" gradientUnits="userSpaceOnUse">
<stop stop-color="#F9AA4B"/>
<stop offset="1" stop-color="#F7931A"/>
</linearGradient>
</defs>
</svg>
